<svg xmlns="http://www.w3.org/2000/svg" xmlns:xlink="http://www.w3.org/1999/xlink" version="1.1" x="0px" y="0px" width="25" height="25" viewBox="0 0 330 330" xml:space="preserve">
	<g style="transform:translate(-72px,-50px) scale(1.3,1.3);">
		<path fill-rule="evenodd" clip-rule="evenodd" fill="#EA6C11" d="M182.906,50.683c-61.781,0-111.863,50.08-111.863,111.861     c0,21.132,5.865,40.896,16.051,57.757l-20.188,60.014l61.932-19.83c16.025,8.863,34.455,13.914,54.068,13.914     c61.777,0,111.859-50.078,111.859-111.854C294.766,100.763,244.684,50.683,182.906,50.683z M182.906,256.584     c-19.104,0-36.891-5.73-51.742-15.553l-36.141,11.574l11.746-34.926c-11.258-15.504-17.91-34.555-17.91-55.138     c0-51.857,42.189-94.045,94.047-94.045c51.855,0,94.045,42.188,94.045,94.045C276.951,214.396,234.762,256.584,182.906,256.584z"/>
		<path fill-rule="evenodd" clip-rule="evenodd" fill="#EA6C11" d="M156.67,116.274c-1.812-4.367-3.2-4.515-5.999-4.648  c-0.96-0.046-2.001-0.09-3.14-0.09c-3.606,0-7.345,1.062-9.598,3.367c-2.742,2.805-9.598,9.375-9.598,22.865  c0,13.492,9.826,26.529,11.195,28.359c1.373,1.828,19.164,29.919,46.844,41.388c21.605,8.949,28.02,8.152,32.949,7.074  c7.172-1.566,16.178-6.848,18.463-13.248c2.285-6.404,2.285-11.893,1.6-13.033c-0.686-1.145-2.514-1.828-5.256-3.203  c-2.742-1.371-16.225-8.004-18.738-8.917c-2.514-0.914-4.838-0.635-6.771,2.038c-2.668,3.693-5.234,7.488-7.359,9.738  c-1.668,1.766-4.352,2.012-6.66,1.031c-3.035-1.293-11.578-4.27-22.053-13.608c-8.15-7.266-13.654-16.242-15.254-18.988  c-1.6-2.742-0.141-4.379,1.092-5.871c1.406-1.703,2.703-2.926,4.074-4.525c1.371-1.602,2.137-2.455,3.051-4.287  c0.914-1.828,0.299-3.715-0.387-5.088C164.438,135.255,158.948,121.767,156.67,116.274z"/>
	</g>
</svg>